<?xml version="1.0" encoding="UTF-8" standalone="yes"?>
<svg xmlns="http://www.w3.org/2000/svg"
     version="1.2"
     baseProfile="tiny"
     width="64"
     height="64"
     viewBox="0 0 64 64">
<rect width="64" height="64" fill="#FFFFFF"/>
  <title>bimi-svg-tiny-12-ps</title>
  <path d="M0 0 C3.125 2.3125 3.125 2.3125 5 5 C5 5.99 5 6.98 5 8 C14.57 8 24.14 8 34 8 C34.11483992 14.88784346 34.21436797 21.77236201 34.2746582 28.66040039 C34.29979125 31.00296284 34.33390308 33.34544695 34.37719727 35.68774414 C34.43789928 39.05634899 34.46622251 42.42391649 34.48828125 45.79296875 C34.51408768 46.83897751 34.5398941 47.88498627 34.56648254 48.96269226 C34.56825928 53.57625747 34.49900448 56.21750312 31.97851562 60.16992188 C28.20649108 62.4875527 25.14916524 62.63870869 20.85546875 62.48828125 C20.17246704 62.48324585 19.48946533 62.47821045 18.7857666 62.47302246 C16.25257949 62.4470086 13.71999431 62.37720085 11.1875 62.3125 C5.515625 62.209375 -0.15625 62.10625 -6 62 C-6 48.14 -6 34.28 -6 20 C-7.65 19.67 -9.3 19.34 -11 19 C-13.3125 17.5625 -13.3125 17.5625 -15 15 C-15.91170877 10.00248526 -15.75817216 6.26362027 -13.125 1.875 C-8.73486171 -0.75908298 -4.99644089 -1.04024261 0 0 Z " fill="#DECD85" transform="translate(23,1)"/>
  <path d="M0 0 C3.125 2.3125 3.125 2.3125 5 5 C5 5.99 5 6.98 5 8 C14.57 8 24.14 8 34 8 C34.11483992 14.88784346 34.21436797 21.77236201 34.2746582 28.66040039 C34.29979125 31.00296284 34.33390308 33.34544695 34.37719727 35.68774414 C34.43789928 39.05634899 34.46622251 42.42391649 34.48828125 45.79296875 C34.51408768 46.83897751 34.5398941 47.88498627 34.56648254 48.96269226 C34.56825928 53.57625747 34.49900448 56.21750312 31.97851562 60.16992188 C28.20649108 62.4875527 25.14916524 62.63870869 20.85546875 62.48828125 C20.17246704 62.48324585 19.48946533 62.47821045 18.7857666 62.47302246 C16.25257949 62.4470086 13.71999431 62.37720085 11.1875 62.3125 C5.515625 62.209375 -0.15625 62.10625 -6 62 C-6 48.14 -6 34.28 -6 20 C-7.65 19.67 -9.3 19.34 -11 19 C-13.3125 17.5625 -13.3125 17.5625 -15 15 C-15.91170877 10.00248526 -15.75817216 6.26362027 -13.125 1.875 C-8.73486171 -0.75908298 -4.99644089 -1.04024261 0 0 Z M5 10 C4.01 12.31 3.02 14.62 2 17 C0.02 17.99 -1.96 18.98 -4 20 C-4 33.2 -4 46.4 -4 60 C5.9 60 15.8 60 26 60 C26 58.02 26 56.04 26 54 C27.98 54 29.96 54 32 54 C32 39.48 32 24.96 32 10 C23.09 10 14.18 10 5 10 Z " fill="#030200" transform="translate(23,1)"/>
  <path d="M0 0 C3.46056456 1.93522834 5.45476286 3.42678858 6.75 7.3125 C6.78621771 12.28338058 5.92475129 16.818014 3.75 21.3125 C3.09 21.3125 2.43 21.3125 1.75 21.3125 C0.75 20.3125 -0.25 19.3125 -1.25 18.3125 C-2.24 17.9825 -3.23 17.6525 -4.25 17.3125 C-5.50541557 13.54625329 -4.62061958 11.94061066 -3.25 8.3125 C-5.89 8.6425 -8.53 8.9725 -11.25 9.3125 C-10.46869929 11.80802484 -10.46869929 11.80802484 -9.25 14.3125 C-8.26 14.6425 -7.27 14.9725 -6.25 15.3125 C-6.25 15.9725 -6.25 16.6325 -6.25 17.3125 C-6.91 17.3125 -7.57 17.3125 -8.25 17.3125 C-7.92 18.3025 -7.59 19.2925 -7.25 20.3125 C-9.23 20.3125 -11.21 20.3125 -13.25 20.3125 C-13.91 21.6325 -14.57 22.9525 -15.25 24.3125 C-12.94 24.9725 -10.63 25.6325 -8.25 26.3125 C-8.25 26.6425 -8.25 26.9725 -8.25 27.3125 C-12.45935149 27.06489109 -14.72627827 26.73147739 -18.0625 24.0625 C-21.88990731 19.25090224 -22.88738267 15.47386582 -22.25 9.3125 C-20.52300735 4.37971262 -17.78624339 1.27512707 -13.1015625 -1.02734375 C-8.33275798 -2.72761372 -4.48294632 -2.007901 0 0 Z " fill="#121514" transform="translate(44.25,17.6875)"/>
  <path d="M0 0 C4.36350222 2.22291622 7.09544338 4.45022584 9 9 C9.40848636 13.57504719 9.00441422 16.86589566 7 21 C5 21 5 21 3.5625 19.625 C3.046875 19.08875 2.53125 18.5525 2 18 C1.01 17.34 0.02 16.68 -1 16 C-0.34 15.01 0.32 14.02 1 13 C1.35269679 10.78573142 1.35269679 10.78573142 1.3125 8.4375 C1.32925781 7.65246094 1.34601562 6.86742187 1.36328125 6.05859375 C1.24339844 5.37925781 1.12351562 4.69992188 1 4 C-1.837578 1.64985842 -1.837578 1.64985842 -5.125 2.3125 C-7.88086422 2.70644321 -7.88086422 2.70644321 -9 4 C-9.19989763 5.99990516 -9.19989763 5.99990516 -9.1875 8.3125 C-9.20167969 9.09238281 -9.21585938 9.87226563 -9.23046875 10.67578125 C-8.97984413 13.2032668 -8.26373772 14.81718031 -7 17 C-7.804375 17.28875 -8.60875 17.5775 -9.4375 17.875 C-12.1326468 18.73262568 -12.1326468 18.73262568 -13 21 C-13.66 21 -14.32 21 -15 21 C-17.00849574 16.85747753 -17.48262992 13.5849842 -17 9 C-13.23712424 1.75298003 -8.2603235 -1.45770415 0 0 Z " fill="#0066E1" transform="translate(41,18)"/>
  <path d="M0 0 C0.08886184 3.19902639 -0.08941469 5.92677456 -1 9 C0.65 9.33 2.3 9.66 4 10 C4.33 10.99 4.66 11.98 5 13 C5.66 13 6.32 13 7 13 C7.99 9.04 8.98 5.08 10 1 C10.33 1 10.66 1 11 1 C11.48602356 6.8322827 10.65201298 11.28409528 7 16 C2.28409528 19.65201298 -2.1677173 20.48602356 -8 20 C-8 19.34 -8 18.68 -8 18 C-9.32 17.34 -10.64 16.68 -12 16 C-11.67 14.68 -11.34 13.36 -11 12 C-8.92446352 11.4465236 -7.15634036 11 -5 11 C-5 10.34 -5 9.68 -5 9 C-4.34 9 -3.68 9 -3 9 C-3 8.34 -3 7.68 -3 7 C-4.32 6.67 -5.64 6.34 -7 6 C-7.33 4.35 -7.66 2.7 -8 1 C-5.23735711 0.40267181 -2.83967231 0 0 0 Z " fill="#121413" transform="translate(41,26)"/>
  <path d="M0 0 C4.0743356 0.84881992 5.54405875 2.30225596 8 5.625 C8.625 8.625 8.625 8.625 8 11.625 C5.54405875 14.94774404 4.0743356 16.40118008 0 17.25 C-4.0743356 16.40118008 -5.54405875 14.94774404 -8 11.625 C-8.625 8.625 -8.625 8.625 -8 5.625 C-5.54405875 2.30225596 -4.0743356 0.84881992 0 0 Z " fill="#87BF03" transform="translate(18,2.375)"/>
  <path d="M0 0 C2.41486943 2.41486943 2.2961925 3.12707789 2.3125 6.4375 C2.32925781 7.21996094 2.34601562 8.00242187 2.36328125 8.80859375 C1.92353251 11.46127163 1.04371546 12.322967 -1 14 C-1 11.16032769 -0.59732819 8.76264289 0 6 C-2.64 6.33 -5.28 6.66 -8 7 C-7.21869929 9.49552484 -7.21869929 9.49552484 -6 12 C-5.01 12.33 -4.02 12.66 -3 13 C-3 13.66 -3 14.32 -3 15 C-3.66 15 -4.32 15 -5 15 C-4.67 15.99 -4.34 16.98 -4 18 C-5.98 17.67 -7.96 17.34 -10 17 C-9.01 15.515 -9.01 15.515 -8 14 C-8.66 13.01 -9.32 12.02 -10 11 C-10.47466138 7.95333623 -10.453457 5.04949831 -10 2 C-7.1061652 -1.78424551 -4.32623609 -1.22263194 0 0 Z " fill="#0D0D0D" transform="translate(41,20)"/>
  <path d="M0 0 C2.00001286 0.26229677 3.99980309 0.52714052 5.99609375 0.81640625 C8.20666388 1.01893412 9.87526018 0.57204534 12 0 C14 2 14 2 14 5 C9.8705512 7.00215699 6.56744115 7.33217754 2 7 C-0.4375 6 -0.4375 6 -2 5 C-1.125 1.125 -1.125 1.125 0 0 Z " fill="#71AEDD" transform="translate(31,37)"/>
  <path d="M0 0 C2.9375 0.875 2.9375 0.875 4.3125 2.9375 C4.51875 3.576875 4.725 4.21625 4.9375 4.875 C0.95772924 5.7191938 -3.03257218 6.32187265 -7.0625 6.875 C-6.75 4.5 -6.75 4.5 -6.0625 1.875 C-3.0625 -0.125 -3.0625 -0.125 0 0 Z " fill="#050D16" transform="translate(38.0625,19.125)"/>
  <path d="M0 0 C0.125 2.375 0.125 2.375 0 5 C-0.66 5.66 -1.32 6.32 -2 7 C-4.625 6.625 -4.625 6.625 -7 6 C-7.33 4.35 -7.66 2.7 -8 1 C-5.23735711 0.40267181 -2.83967231 0 0 0 Z " fill="#F3D0A2" transform="translate(41,26)"/>
  <path d="M0 0 C4.99767765 0.4759693 8.07050258 1.87426342 12 5 C14.12272015 7.99110566 14.20086799 10.38437619 14 14 C12 11 12 11 10.4375 8 C7.18482296 3.99670519 3.89079318 3.19134706 -1 2 C-0.67 1.34 -0.34 0.68 0 0 Z " fill="#0E0F0E" transform="translate(37,16)"/>
  <path d="M0 0 C0.66 0 1.32 0 2 0 C0.55746343 3.36591866 -1.33264727 5.51047079 -4 8 C-5.9375 7.1875 -5.9375 7.1875 -8 6 C-8.33 5.01 -8.66 4.02 -9 3 C-8.2575 3.2475 -7.515 3.495 -6.75 3.75 C-5.8425 3.8325 -4.935 3.915 -4 4 C-1.7914234 2.12491838 -1.7914234 2.12491838 0 0 Z " fill="#131A00" transform="translate(22,8)"/>
  <path d="M0 0 C0 1.65 0 3.3 0 5 C-1.65 5 -3.3 5 -5 5 C-4.34 4.67 -3.68 4.34 -3 4 C-3 3.34 -3 2.68 -3 2 C-3.84304687 2.26103516 -3.84304687 2.26103516 -4.703125 2.52734375 C-7.24556755 3.05053346 -9.18452337 2.90204838 -11.75 2.5625 C-12.94882812 2.40974609 -12.94882812 2.40974609 -14.171875 2.25390625 C-14.77515625 2.17011719 -15.3784375 2.08632813 -16 2 C-16 1.67 -16 1.34 -16 1 C-13.52085964 0.83293398 -11.04168987 0.66632824 -8.5625 0.5 C-7.85544922 0.45230469 -7.14839844 0.40460937 -6.41992188 0.35546875 C-1.11328125 0 -1.11328125 0 0 0 Z " fill="#FFEB99" transform="translate(55,50)"/>
  <path d="M0 0 C0.66 0 1.32 0 2 0 C2 0.66 2 1.32 2 2 C2.99 2.33 3.98 2.66 5 3 C3.25 4.5625 3.25 4.5625 1 6 C-1.25 5.6875 -1.25 5.6875 -3 5 C-2.67 4.01 -2.34 3.02 -2 2 C-1.34 2 -0.68 2 0 2 C0 1.34 0 0.68 0 0 Z " fill="#2D2C2A" transform="translate(38,33)"/>
  <path d="M0 0 C1.65 0.33 3.3 0.66 5 1 C5 1.66 5 2.32 5 3 C2.69 3.33 0.38 3.66 -2 4 C-1.34 2.68 -0.68 1.36 0 0 Z " fill="#E3870F" transform="translate(35,21)"/>
  <path d="M0 0 C1.32 0 2.64 0 4 0 C4 0.66 4 1.32 4 2 C3.34 2 2.68 2 2 2 C2.33 2.99 2.66 3.98 3 5 C0.03 4.505 0.03 4.505 -3 4 C-2.67 3.34 -2.34 2.68 -2 2 C-1.34 2 -0.68 2 0 2 C0 1.34 0 0.68 0 0 Z " fill="#030506" transform="translate(34,33)"/>
  <path d="M0 0 C0.66 0 1.32 0 2 0 C2.36923077 6.52307692 2.36923077 6.52307692 0.5 8.9375 C0.005 9.288125 -0.49 9.63875 -1 10 C-1 6.58900832 -0.50854594 3.36911686 0 0 Z " fill="#02060B" transform="translate(41,24)"/>
</svg>